M48
METRIC,LZ,000.000
;FILE_FORMAT=3:3
;TYPE=PLATED
;Layer: PTH_Through
;EasyEDA v6.5.5, 2022-05-17 09:42:53
;10cda3a1212d43f89cf9d1cb10f4882f,1cecfb22d57c4bfb82df15c5060036b0,10
;Gerber Generator version 0.2
;Holesize 1 = 0.889 mm
T01C0.889
;Holesize 2 = 0.901 mm
T02C0.901
;Holesize 3 = 0.915 mm
T03C0.915
;Holesize 4 = 1.000 mm
T04C1.000
;Holesize 5 = 1.016 mm
T05C1.016
%
G05
G90
T01
X058039Y-005334
X055499Y-005334
T02
X044069Y-005588
X042037Y-005588
X039942Y-005588
X036068Y-005588
T03
X086614Y-039116
X086614Y-041656
X093472Y-038989
X093472Y-041529
X101219Y-039243
X101219Y-041783
X060579Y-005334
T04
X080391Y-093218G85X080391Y-093218
X077851Y-093218G85X077851Y-093218
X075311Y-093218G85X075311Y-093218
X072771Y-093218G85X072771Y-093218
X030480Y-092964G85X030480Y-092964
X027940Y-092964G85X027940Y-092964
X025400Y-092964G85X025400Y-092964
X022860Y-092964G85X022860Y-092964
X086106Y-004955
X088646Y-004955
X091186Y-004955
X093726Y-004952
X086614Y-049765
X086614Y-063265
X093599Y-049511
X093599Y-063011
X101473Y-049511
X101473Y-063011
X013335Y-004953
X018415Y-004953
X015875Y-004953
X010795Y-004978
X008255Y-004953
X005715Y-004953
T05
X069850Y-050292
X069850Y-047752
X069850Y-045212
X069850Y-042672
X069850Y-040132
X069850Y-037338
X069850Y-032258
X069850Y-029718
X069850Y-027178
X069850Y-024638
X069850Y-022098
X069850Y-019558
X021590Y-019558
X021590Y-022098
X021590Y-024638
X021590Y-027178
X021590Y-029718
X021590Y-032258
X021590Y-034798
X021590Y-037338
X021590Y-041402
X021590Y-043942
X021590Y-046482
X021590Y-049022
X021590Y-051562
X021590Y-054102
X021590Y-056642
X021590Y-059182
X021590Y-061722
X021590Y-064262
X069850Y-052832
X030607Y-052702G85X030607Y-052708
X030607Y-055242G85X030607Y-055248
X030607Y-057782G85X030607Y-057788
X030607Y-060322G85X030607Y-060328
X030607Y-062862G85X030607Y-062868
X030607Y-065402G85X030607Y-065408
X030607Y-067942G85X030607Y-067948
X030607Y-070482G85X030607Y-070488
X062865Y-052702G85X062865Y-052708
X062865Y-055242G85X062865Y-055248
X062865Y-057782G85X062865Y-057788
X062865Y-060322G85X062865Y-060328
X062865Y-062862G85X062865Y-062868
X062862Y-065405G85X062868Y-065405
X062862Y-067945G85X062868Y-067945
X062862Y-070485G85X062868Y-070485
M30
