G04 Layer: BottomLayer*
G04 EasyEDA v6.5.5, 2022-05-17 09:42:53*
G04 10cda3a1212d43f89cf9d1cb10f4882f,1cecfb22d57c4bfb82df15c5060036b0,10*
G04 Gerber Generator version 0.2*
G04 Scale: 100 percent, Rotated: No, Reflected: No *
G04 Dimensions in millimeters *
G04 leading zeros omitted , absolute positions ,4 integer and 5 decimal *
%FSLAX45Y45*%
%MOMM*%

%ADD11R,1.5080X1.5080*%
%ADD12C,1.5080*%
%ADD13C,1.5240*%
%ADD14C,1.6500*%
%ADD15C,1.8796*%
%ADD16C,1.5000*%
%ADD17C,1.2000*%
%ADD18C,1.5748*%
%ADD19R,1.5748X1.5748*%
%ADD20C,1.7780*%
%ADD21C,0.4000*%

%LPD*%
D21*
X9131300Y-366013D02*
G01*
X9319513Y-177800D01*
X9385300Y-177800D01*
X9398000Y-190500D01*
X9855200Y-190500D01*
X10795000Y-1130300D01*
X10795000Y-6045200D01*
X10538968Y-6300978D01*
X10147300Y-6300978D01*
X9372600Y-508000D02*
G01*
X10566400Y-1701800D01*
X10566400Y-5359400D01*
X10414000Y-5511800D01*
X8559800Y-5511800D01*
X7327900Y-4279900D01*
X6985000Y-4279900D01*
X2159000Y-5664200D02*
G01*
X2171700Y-5676900D01*
X2349500Y-5676900D01*
X2463800Y-5791200D01*
X2463800Y-7327900D01*
X2286000Y-7505700D01*
X2286000Y-9296400D01*
X2159000Y-5156200D02*
G01*
X2463800Y-5156200D01*
X2794000Y-5486400D01*
X2794000Y-9296400D01*
X2159000Y-5410200D02*
G01*
X2336800Y-5410200D01*
X2641600Y-5715000D01*
X2641600Y-7797800D01*
X2540000Y-7899400D01*
X2540000Y-9296400D01*
X2159000Y-4140200D02*
G01*
X3962400Y-4140200D01*
X5130800Y-5308600D01*
X5130800Y-8293100D01*
X6426200Y-9588500D01*
X7454900Y-9588500D01*
X7531100Y-9512300D01*
X7531100Y-9321800D01*
X10212577Y-6235700D02*
G01*
X10147300Y-6300978D01*
X5549900Y-355600D02*
G01*
X5549900Y-342900D01*
X5689600Y-203200D01*
X8991600Y-203200D01*
X9131300Y-342900D01*
X9131300Y-482600D01*
X9118600Y-495300D01*
X8007350Y-6026150D02*
G01*
X8293100Y-5740400D01*
X8547100Y-5753100D01*
X8661400Y-5867400D01*
X8661400Y-6326504D01*
X10147300Y-6301104D02*
G01*
X9359900Y-6301104D01*
X8661400Y-6326504D02*
G01*
X8686800Y-6301104D01*
X9359900Y-6301104D01*
X6985000Y-5283200D02*
G01*
X7264400Y-5283200D01*
X8039100Y-6057900D01*
X8039100Y-9321800D01*
X10121889Y-4178289D02*
G01*
X10147300Y-4203700D01*
X10147300Y-4951095D01*
X9347189Y-4152889D02*
G01*
X9359900Y-4165600D01*
X9359900Y-4951095D01*
X8661389Y-4165589D02*
G01*
X8661400Y-4976495D01*
X6985000Y-2717800D02*
G01*
X9169400Y-2717800D01*
X10121889Y-3670289D01*
X10121889Y-3924289D01*
X6985000Y-2971800D02*
G01*
X8801100Y-2971800D01*
X9347189Y-3517889D01*
X9347189Y-3898889D01*
X6985000Y-3225800D02*
G01*
X8382000Y-3225800D01*
X8661389Y-3505189D01*
X8661389Y-3911589D01*
X2159000Y-4394200D02*
G01*
X3619500Y-4394200D01*
X4305300Y-5080000D01*
X4305300Y-8585200D01*
X5448300Y-9728200D01*
X7594600Y-9728200D01*
X7785100Y-9537700D01*
X7785100Y-9321800D01*
X3048000Y-9296400D02*
G01*
X3657600Y-9906000D01*
X7785100Y-9906000D01*
X8039100Y-9652000D01*
X8039100Y-9321800D01*
X8864600Y-495300D02*
G01*
X8864600Y-1511300D01*
X8420100Y-1955800D01*
X6985000Y-1955800D01*
X6985000Y-2209800D02*
G01*
X6553200Y-2209800D01*
X6337300Y-1993900D01*
X6337300Y-850900D01*
X6692900Y-495300D01*
X8610600Y-495300D01*
X6286500Y-7048500D02*
G01*
X6477000Y-7048500D01*
X7277100Y-7848600D01*
X7277100Y-9321800D01*
X6985000Y-4267200D02*
G01*
X6769100Y-4267200D01*
X6667500Y-4368800D01*
X6667500Y-6845300D01*
X6464300Y-7048500D01*
X6286500Y-7048500D01*
X6751065Y-4285234D02*
G01*
X6751065Y-4261865D01*
X6057900Y-3568700D01*
X6057900Y-533400D01*
X4406900Y-558800D02*
G01*
X4406900Y-1104900D01*
X2527300Y-2984500D01*
X2159000Y-2984500D01*
X2159000Y-2971800D01*
X5803900Y-533400D02*
G01*
X5803900Y-939800D01*
X3009900Y-3733800D01*
X2159000Y-3733800D01*
X4000500Y-342900D02*
G01*
X4013200Y-342900D01*
X4152900Y-203200D01*
X5397500Y-203200D01*
X5549900Y-355600D01*
X5549900Y-533400D01*
X571500Y-495300D02*
G01*
X571500Y-330200D01*
X698500Y-203200D01*
X3860800Y-203200D01*
X4000500Y-342900D01*
X4000500Y-552450D01*
X3994150Y-558800D01*
X3606800Y-558800D02*
G01*
X3606800Y-1295400D01*
X2400300Y-2501900D01*
X2362200Y-2463800D01*
X2159000Y-2463800D01*
X4203700Y-558800D02*
G01*
X4203700Y-1028700D01*
X2514600Y-2717800D01*
X2159000Y-2717800D01*
X3060700Y-5270500D02*
G01*
X2844800Y-5270500D01*
X2476500Y-4902200D01*
X2159000Y-4902200D01*
X3060700Y-5524500D02*
G01*
X3225800Y-5524500D01*
X3378200Y-5372100D01*
X3378200Y-4914900D01*
X3111500Y-4648200D01*
X2159000Y-4648200D01*
X1333500Y-495300D02*
G01*
X1333500Y-5130800D01*
X1866900Y-5664200D01*
X2159000Y-5664200D01*
X1079500Y-497839D02*
G01*
X1079500Y-5473700D01*
X1752600Y-6159500D01*
X1879600Y-6172200D01*
X2159000Y-6172200D01*
X825500Y-495300D02*
G01*
X825500Y-5702300D01*
X1562100Y-6438900D01*
X1574800Y-6426200D01*
X2159000Y-6426200D01*
D11*
G01*
X8039100Y-9321800D03*
D12*
G01*
X7785100Y-9321800D03*
G01*
X7531100Y-9321800D03*
G01*
X7277100Y-9321800D03*
D11*
G01*
X3048000Y-9296400D03*
D12*
G01*
X2794000Y-9296400D03*
G01*
X2540000Y-9296400D03*
G01*
X2286000Y-9296400D03*
D13*
G01*
X8661389Y-3911589D03*
G01*
X8661389Y-4165589D03*
G01*
X9347189Y-3898889D03*
G01*
X9347189Y-4152889D03*
G01*
X10121889Y-3924289D03*
G01*
X10121889Y-4178289D03*
D14*
G01*
X8610600Y-495427D03*
G01*
X8864600Y-495427D03*
G01*
X9118600Y-495427D03*
G01*
X9372600Y-495172D03*
D15*
G01*
X8661400Y-4976495D03*
G01*
X8661400Y-6326504D03*
G01*
X9359900Y-4951095D03*
G01*
X9359900Y-6301104D03*
G01*
X10147300Y-4951095D03*
G01*
X10147300Y-6301104D03*
D16*
G01*
X1333500Y-495300D03*
G01*
X1841500Y-495300D03*
G01*
X1587500Y-495300D03*
G01*
X1079500Y-497839D03*
G01*
X825500Y-495300D03*
G01*
X571500Y-495300D03*
D17*
G01*
X4406900Y-558800D03*
G01*
X4203700Y-558800D03*
G01*
X3994150Y-558800D03*
G01*
X3606800Y-558800D03*
D13*
G01*
X6057900Y-533400D03*
D18*
G01*
X5803900Y-533400D03*
D19*
G01*
X5549900Y-533400D03*
G36*
X3094710Y-5352643D02*
G01*
X3142843Y-5304536D01*
X3142843Y-5236489D01*
X3094710Y-5188381D01*
X3026689Y-5188381D01*
X2978556Y-5236489D01*
X2978556Y-5304536D01*
X3026689Y-5352643D01*
G37*
G36*
X3094710Y-5606643D02*
G01*
X3142843Y-5558536D01*
X3142843Y-5490489D01*
X3094710Y-5442381D01*
X3026689Y-5442381D01*
X2978556Y-5490489D01*
X2978556Y-5558536D01*
X3026689Y-5606643D01*
G37*
G36*
X3094710Y-5860643D02*
G01*
X3142843Y-5812536D01*
X3142843Y-5744489D01*
X3094710Y-5696381D01*
X3026689Y-5696381D01*
X2978556Y-5744489D01*
X2978556Y-5812536D01*
X3026689Y-5860643D01*
G37*
G36*
X3094710Y-6114643D02*
G01*
X3142843Y-6066510D01*
X3142843Y-5998489D01*
X3094710Y-5950381D01*
X3026689Y-5950381D01*
X2978556Y-5998489D01*
X2978556Y-6066510D01*
X3026689Y-6114643D01*
G37*
G36*
X3094710Y-6368643D02*
G01*
X3142843Y-6320510D01*
X3142843Y-6252489D01*
X3094710Y-6204381D01*
X3026689Y-6204381D01*
X2978556Y-6252489D01*
X2978556Y-6320510D01*
X3026689Y-6368643D01*
G37*
G36*
X3094710Y-6622643D02*
G01*
X3142843Y-6574510D01*
X3142843Y-6506489D01*
X3094710Y-6458356D01*
X3026689Y-6458356D01*
X2978556Y-6506489D01*
X2978556Y-6574510D01*
X3026689Y-6622643D01*
G37*
G36*
X3094710Y-6876643D02*
G01*
X3142843Y-6828510D01*
X3142843Y-6760489D01*
X3094710Y-6712356D01*
X3026689Y-6712356D01*
X2978556Y-6760489D01*
X2978556Y-6828510D01*
X3026689Y-6876643D01*
G37*
G36*
X3094710Y-7130643D02*
G01*
X3142843Y-7082510D01*
X3142843Y-7014489D01*
X3094710Y-6966356D01*
X3026689Y-6966356D01*
X2978556Y-7014489D01*
X2978556Y-7082510D01*
X3026689Y-7130643D01*
G37*
G36*
X6320510Y-5352643D02*
G01*
X6368618Y-5304536D01*
X6368618Y-5236489D01*
X6320510Y-5188381D01*
X6252463Y-5188381D01*
X6204356Y-5236489D01*
X6204356Y-5304536D01*
X6252463Y-5352643D01*
G37*
G36*
X6320510Y-5606643D02*
G01*
X6368618Y-5558536D01*
X6368618Y-5490489D01*
X6320510Y-5442381D01*
X6252463Y-5442381D01*
X6204356Y-5490489D01*
X6204356Y-5558536D01*
X6252463Y-5606643D01*
G37*
G36*
X6320510Y-5860643D02*
G01*
X6368618Y-5812536D01*
X6368618Y-5744489D01*
X6320510Y-5696381D01*
X6252463Y-5696381D01*
X6204356Y-5744489D01*
X6204356Y-5812536D01*
X6252463Y-5860643D01*
G37*
G36*
X6320510Y-6114643D02*
G01*
X6368618Y-6066510D01*
X6368618Y-5998489D01*
X6320510Y-5950381D01*
X6252463Y-5950381D01*
X6204356Y-5998489D01*
X6204356Y-6066510D01*
X6252463Y-6114643D01*
G37*
G36*
X6320510Y-6368643D02*
G01*
X6368618Y-6320510D01*
X6368618Y-6252489D01*
X6320510Y-6204381D01*
X6252463Y-6204381D01*
X6204356Y-6252489D01*
X6204356Y-6320510D01*
X6252463Y-6368643D01*
G37*
G36*
X6320510Y-6622643D02*
G01*
X6368618Y-6574510D01*
X6368618Y-6506489D01*
X6320510Y-6458356D01*
X6252463Y-6458356D01*
X6204356Y-6506489D01*
X6204356Y-6574510D01*
X6252463Y-6622643D01*
G37*
G36*
X6320510Y-6876643D02*
G01*
X6368618Y-6828510D01*
X6368618Y-6760489D01*
X6320510Y-6712356D01*
X6252463Y-6712356D01*
X6204356Y-6760489D01*
X6204356Y-6828510D01*
X6252463Y-6876643D01*
G37*
G36*
X6320510Y-7130643D02*
G01*
X6368618Y-7082510D01*
X6368618Y-7014489D01*
X6320510Y-6966356D01*
X6252463Y-6966356D01*
X6204356Y-7014489D01*
X6204356Y-7082510D01*
X6252463Y-7130643D01*
G37*
D20*
X6896100Y-5029200D02*
G01*
X7073900Y-5029200D01*
X6896100Y-4775200D02*
G01*
X7073900Y-4775200D01*
X6896100Y-4521200D02*
G01*
X7073900Y-4521200D01*
X6896100Y-4267200D02*
G01*
X7073900Y-4267200D01*
X6896100Y-4013200D02*
G01*
X7073900Y-4013200D01*
X6896100Y-3733800D02*
G01*
X7073900Y-3733800D01*
X6896100Y-3225800D02*
G01*
X7073900Y-3225800D01*
X6896100Y-2971800D02*
G01*
X7073900Y-2971800D01*
X6896100Y-2717800D02*
G01*
X7073900Y-2717800D01*
X6896100Y-2463800D02*
G01*
X7073900Y-2463800D01*
X6896100Y-2209800D02*
G01*
X7073900Y-2209800D01*
X6896100Y-1955800D02*
G01*
X7073900Y-1955800D01*
X2070100Y-1955800D02*
G01*
X2247900Y-1955800D01*
X2070100Y-2209800D02*
G01*
X2247900Y-2209800D01*
X2070100Y-2463800D02*
G01*
X2247900Y-2463800D01*
X2070100Y-2717800D02*
G01*
X2247900Y-2717800D01*
X2070100Y-2971800D02*
G01*
X2247900Y-2971800D01*
X2070100Y-3225800D02*
G01*
X2247900Y-3225800D01*
X2070100Y-3479800D02*
G01*
X2247900Y-3479800D01*
X2070100Y-3733800D02*
G01*
X2247900Y-3733800D01*
X2070100Y-4140200D02*
G01*
X2247900Y-4140200D01*
X2070100Y-4394200D02*
G01*
X2247900Y-4394200D01*
X2070100Y-4648200D02*
G01*
X2247900Y-4648200D01*
X2070100Y-4902200D02*
G01*
X2247900Y-4902200D01*
X2070100Y-5156200D02*
G01*
X2247900Y-5156200D01*
X2070100Y-5410200D02*
G01*
X2247900Y-5410200D01*
X2070100Y-5664200D02*
G01*
X2247900Y-5664200D01*
X2070100Y-5918200D02*
G01*
X2247900Y-5918200D01*
X2070100Y-6172200D02*
G01*
X2247900Y-6172200D01*
X2070100Y-6426200D02*
G01*
X2247900Y-6426200D01*
X6896100Y-5283200D02*
G01*
X7073900Y-5283200D01*
M02*
