G04 Layer: BottomSolderMaskLayer*
G04 EasyEDA v6.5.5, 2022-05-17 09:42:53*
G04 10cda3a1212d43f89cf9d1cb10f4882f,1cecfb22d57c4bfb82df15c5060036b0,10*
G04 Gerber Generator version 0.2*
G04 Scale: 100 percent, Rotated: No, Reflected: No *
G04 Dimensions in millimeters *
G04 leading zeros omitted , absolute positions ,4 integer and 5 decimal *
%FSLAX45Y45*%
%MOMM*%

%ADD28C,1.9812*%
%ADD30C,1.6096*%
%ADD31C,1.7272*%
%ADD32C,1.7516*%
%ADD33C,1.9812*%
%ADD34C,1.7032*%
%ADD35C,1.3016*%
%ADD36C,1.6256*%
%ADD37C,1.6764*%

%LPD*%
D28*
X6896100Y-5029200D02*
G01*
X7073900Y-5029200D01*
X6896100Y-4775200D02*
G01*
X7073900Y-4775200D01*
X6896100Y-4521200D02*
G01*
X7073900Y-4521200D01*
X6896100Y-4267200D02*
G01*
X7073900Y-4267200D01*
X6896100Y-4013200D02*
G01*
X7073900Y-4013200D01*
X6896100Y-3733800D02*
G01*
X7073900Y-3733800D01*
X6896100Y-3225800D02*
G01*
X7073900Y-3225800D01*
X6896100Y-2971800D02*
G01*
X7073900Y-2971800D01*
X6896100Y-2717800D02*
G01*
X7073900Y-2717800D01*
X6896100Y-2463800D02*
G01*
X7073900Y-2463800D01*
X6896100Y-2209800D02*
G01*
X7073900Y-2209800D01*
X6896100Y-1955800D02*
G01*
X7073900Y-1955800D01*
X2070100Y-1955800D02*
G01*
X2247900Y-1955800D01*
X2070100Y-2209800D02*
G01*
X2247900Y-2209800D01*
X2070100Y-2463800D02*
G01*
X2247900Y-2463800D01*
X2070100Y-2717800D02*
G01*
X2247900Y-2717800D01*
X2070100Y-2971800D02*
G01*
X2247900Y-2971800D01*
X2070100Y-3225800D02*
G01*
X2247900Y-3225800D01*
X2070100Y-3479800D02*
G01*
X2247900Y-3479800D01*
X2070100Y-3733800D02*
G01*
X2247900Y-3733800D01*
X2070100Y-4140200D02*
G01*
X2247900Y-4140200D01*
X2070100Y-4394200D02*
G01*
X2247900Y-4394200D01*
X2070100Y-4648200D02*
G01*
X2247900Y-4648200D01*
X2070100Y-4902200D02*
G01*
X2247900Y-4902200D01*
X2070100Y-5156200D02*
G01*
X2247900Y-5156200D01*
X2070100Y-5410200D02*
G01*
X2247900Y-5410200D01*
X2070100Y-5664200D02*
G01*
X2247900Y-5664200D01*
X2070100Y-5918200D02*
G01*
X2247900Y-5918200D01*
X2070100Y-6172200D02*
G01*
X2247900Y-6172200D01*
X2070100Y-6426200D02*
G01*
X2247900Y-6426200D01*
X6896100Y-5283200D02*
G01*
X7073900Y-5283200D01*
G36*
X7963661Y-9402318D02*
G01*
X7963700Y-9402279D01*
X7962176Y-9402025D01*
X7960652Y-9401263D01*
X7959636Y-9400247D01*
X7958874Y-9398723D01*
X7958620Y-9397199D01*
X7958581Y-9397237D01*
X7958581Y-9246362D01*
X7958620Y-9246400D01*
X7958874Y-9244876D01*
X7959636Y-9243352D01*
X7960652Y-9242336D01*
X7962176Y-9241574D01*
X7963700Y-9241320D01*
X7963661Y-9241281D01*
X8114538Y-9241281D01*
X8114499Y-9241320D01*
X8116023Y-9241574D01*
X8117547Y-9242336D01*
X8118563Y-9243352D01*
X8119325Y-9244876D01*
X8119579Y-9246400D01*
X8119618Y-9246362D01*
X8119618Y-9397237D01*
X8119579Y-9397199D01*
X8119325Y-9398723D01*
X8118563Y-9400247D01*
X8117547Y-9401263D01*
X8116023Y-9402025D01*
X8114499Y-9402279D01*
X8114538Y-9402318D01*
G37*
D30*
G01*
X7785100Y-9321800D03*
G01*
X7531100Y-9321800D03*
G01*
X7277100Y-9321800D03*
G36*
X2972561Y-9376918D02*
G01*
X2972600Y-9376879D01*
X2971076Y-9376625D01*
X2969552Y-9375863D01*
X2968536Y-9374847D01*
X2967774Y-9373323D01*
X2967520Y-9371799D01*
X2967481Y-9371837D01*
X2967481Y-9220962D01*
X2967520Y-9221000D01*
X2967774Y-9219476D01*
X2968536Y-9217952D01*
X2969552Y-9216936D01*
X2971076Y-9216174D01*
X2972600Y-9215920D01*
X2972561Y-9215881D01*
X3123438Y-9215881D01*
X3123399Y-9215920D01*
X3124923Y-9216174D01*
X3126447Y-9216936D01*
X3127463Y-9217952D01*
X3128225Y-9219476D01*
X3128479Y-9221000D01*
X3128518Y-9220962D01*
X3128518Y-9371837D01*
X3128479Y-9371799D01*
X3128225Y-9373323D01*
X3127463Y-9374847D01*
X3126447Y-9375863D01*
X3124923Y-9376625D01*
X3123399Y-9376879D01*
X3123438Y-9376918D01*
G37*
G01*
X2794000Y-9296400D03*
G01*
X2540000Y-9296400D03*
G01*
X2286000Y-9296400D03*
D31*
G01*
X8661389Y-3911589D03*
G01*
X8661389Y-4165589D03*
G01*
X9347189Y-3898889D03*
G01*
X9347189Y-4152889D03*
G01*
X10121889Y-3924289D03*
G01*
X10121889Y-4178289D03*
D32*
G01*
X8610600Y-495427D03*
G01*
X8864600Y-495427D03*
G01*
X9118600Y-495427D03*
G01*
X9372600Y-495172D03*
D33*
G01*
X8661400Y-4976495D03*
G01*
X8661400Y-6326504D03*
G01*
X9359900Y-4951095D03*
G01*
X9359900Y-6301104D03*
G01*
X10147300Y-4951095D03*
G01*
X10147300Y-6301104D03*
D34*
G01*
X1333500Y-495300D03*
G01*
X1841500Y-495300D03*
G01*
X1587500Y-495300D03*
G01*
X1079500Y-497839D03*
G01*
X825500Y-495300D03*
G01*
X571500Y-495300D03*
D35*
G01*
X4406900Y-558800D03*
G01*
X4203700Y-558800D03*
G01*
X3994150Y-558800D03*
G01*
X3606800Y-558800D03*
D36*
G01*
X6057900Y-533400D03*
D37*
G01*
X5803900Y-533400D03*
G36*
X5471159Y-617220D02*
G01*
X5469635Y-616965D01*
X5468111Y-616204D01*
X5467095Y-615187D01*
X5466333Y-613663D01*
X5466079Y-612139D01*
X5466079Y-612139D01*
X5466079Y-454660D01*
X5466079Y-454660D01*
X5466333Y-453136D01*
X5467095Y-451612D01*
X5468111Y-450595D01*
X5469635Y-449834D01*
X5471159Y-449579D01*
X5628640Y-449579D01*
X5630164Y-449834D01*
X5631688Y-450595D01*
X5632704Y-451612D01*
X5633466Y-453136D01*
X5633720Y-454660D01*
X5633720Y-454660D01*
X5633720Y-612139D01*
X5633720Y-612139D01*
X5633466Y-613663D01*
X5632704Y-615187D01*
X5631688Y-616204D01*
X5630164Y-616965D01*
X5628640Y-617220D01*
G37*
G36*
X3025165Y-5362803D02*
G01*
X3022117Y-5361787D01*
X3020593Y-5360771D01*
X3019577Y-5359755D01*
X3019552Y-5359907D01*
X2971291Y-5311647D01*
X2971444Y-5311647D01*
X2970428Y-5310631D01*
X2969412Y-5309107D01*
X2968396Y-5306060D01*
X2968396Y-5304536D01*
X2968497Y-5304536D01*
X2968497Y-5236463D01*
X2968396Y-5236489D01*
X2968396Y-5234965D01*
X2969412Y-5231917D01*
X2970428Y-5230393D01*
X2971444Y-5229377D01*
X2971291Y-5229352D01*
X3019552Y-5181092D01*
X3019577Y-5181269D01*
X3020593Y-5180253D01*
X3022117Y-5179237D01*
X3025165Y-5178221D01*
X3026689Y-5178221D01*
X3026663Y-5178297D01*
X3094736Y-5178297D01*
X3094710Y-5178221D01*
X3096234Y-5178221D01*
X3099282Y-5179237D01*
X3100806Y-5180253D01*
X3101822Y-5181269D01*
X3101847Y-5181092D01*
X3150108Y-5229352D01*
X3149955Y-5229377D01*
X3150971Y-5230393D01*
X3151987Y-5231917D01*
X3153003Y-5234965D01*
X3153003Y-5236489D01*
X3152902Y-5236463D01*
X3152902Y-5304536D01*
X3153003Y-5304536D01*
X3153003Y-5306060D01*
X3151987Y-5309107D01*
X3150971Y-5310631D01*
X3149955Y-5311647D01*
X3150108Y-5311647D01*
X3101847Y-5359907D01*
X3101822Y-5359755D01*
X3100806Y-5360771D01*
X3099282Y-5361787D01*
X3096234Y-5362803D01*
X3094710Y-5362803D01*
X3094736Y-5362702D01*
X3026663Y-5362702D01*
X3026689Y-5362803D01*
G37*
G36*
X3025165Y-5616803D02*
G01*
X3022117Y-5615787D01*
X3020593Y-5614771D01*
X3019577Y-5613755D01*
X3019552Y-5613907D01*
X2971291Y-5565647D01*
X2971444Y-5565647D01*
X2970428Y-5564631D01*
X2969412Y-5563107D01*
X2968396Y-5560060D01*
X2968396Y-5558536D01*
X2968497Y-5558536D01*
X2968497Y-5490463D01*
X2968396Y-5490489D01*
X2968396Y-5488965D01*
X2969412Y-5485917D01*
X2970428Y-5484393D01*
X2971444Y-5483377D01*
X2971291Y-5483352D01*
X3019552Y-5435092D01*
X3019577Y-5435269D01*
X3020593Y-5434253D01*
X3022117Y-5433237D01*
X3025165Y-5432221D01*
X3026689Y-5432221D01*
X3026663Y-5432297D01*
X3094736Y-5432297D01*
X3094710Y-5432221D01*
X3096234Y-5432221D01*
X3099282Y-5433237D01*
X3100806Y-5434253D01*
X3101822Y-5435269D01*
X3101847Y-5435092D01*
X3150108Y-5483352D01*
X3149955Y-5483377D01*
X3150971Y-5484393D01*
X3151987Y-5485917D01*
X3153003Y-5488965D01*
X3153003Y-5490489D01*
X3152902Y-5490463D01*
X3152902Y-5558536D01*
X3153003Y-5558536D01*
X3153003Y-5560060D01*
X3151987Y-5563107D01*
X3150971Y-5564631D01*
X3149955Y-5565647D01*
X3150108Y-5565647D01*
X3101847Y-5613907D01*
X3101822Y-5613755D01*
X3100806Y-5614771D01*
X3099282Y-5615787D01*
X3096234Y-5616803D01*
X3094710Y-5616803D01*
X3094736Y-5616702D01*
X3026663Y-5616702D01*
X3026689Y-5616803D01*
G37*
G36*
X3025165Y-5870803D02*
G01*
X3022117Y-5869787D01*
X3020593Y-5868771D01*
X3019577Y-5867755D01*
X3019552Y-5867907D01*
X2971291Y-5819647D01*
X2971444Y-5819647D01*
X2970428Y-5818631D01*
X2969412Y-5817107D01*
X2968396Y-5814060D01*
X2968396Y-5812536D01*
X2968497Y-5812536D01*
X2968497Y-5744463D01*
X2968396Y-5744489D01*
X2968396Y-5742965D01*
X2969412Y-5739917D01*
X2970428Y-5738393D01*
X2971444Y-5737377D01*
X2971291Y-5737352D01*
X3019552Y-5689092D01*
X3019577Y-5689269D01*
X3020593Y-5688253D01*
X3022117Y-5687237D01*
X3025165Y-5686221D01*
X3026689Y-5686221D01*
X3026663Y-5686297D01*
X3094736Y-5686297D01*
X3094710Y-5686221D01*
X3096234Y-5686221D01*
X3099282Y-5687237D01*
X3100806Y-5688253D01*
X3101822Y-5689269D01*
X3101847Y-5689092D01*
X3150108Y-5737352D01*
X3149955Y-5737377D01*
X3150971Y-5738393D01*
X3151987Y-5739917D01*
X3153003Y-5742965D01*
X3153003Y-5744489D01*
X3152902Y-5744463D01*
X3152902Y-5812536D01*
X3153003Y-5812536D01*
X3153003Y-5814060D01*
X3151987Y-5817107D01*
X3150971Y-5818631D01*
X3149955Y-5819647D01*
X3150108Y-5819647D01*
X3101847Y-5867907D01*
X3101822Y-5867755D01*
X3100806Y-5868771D01*
X3099282Y-5869787D01*
X3096234Y-5870803D01*
X3094710Y-5870803D01*
X3094736Y-5870702D01*
X3026663Y-5870702D01*
X3026689Y-5870803D01*
G37*
G36*
X3025165Y-6124803D02*
G01*
X3022117Y-6123787D01*
X3020593Y-6122771D01*
X3019577Y-6121755D01*
X3019552Y-6121907D01*
X2971291Y-6073647D01*
X2971444Y-6073622D01*
X2970428Y-6072606D01*
X2969412Y-6071082D01*
X2968396Y-6068034D01*
X2968396Y-6066510D01*
X2968497Y-6066536D01*
X2968497Y-5998463D01*
X2968396Y-5998489D01*
X2968396Y-5996965D01*
X2969412Y-5993917D01*
X2970428Y-5992393D01*
X2971444Y-5991377D01*
X2971291Y-5991352D01*
X3019552Y-5943092D01*
X3019577Y-5943269D01*
X3020593Y-5942253D01*
X3022117Y-5941237D01*
X3025165Y-5940221D01*
X3026689Y-5940221D01*
X3026663Y-5940297D01*
X3094736Y-5940297D01*
X3094710Y-5940221D01*
X3096234Y-5940221D01*
X3099282Y-5941237D01*
X3100806Y-5942253D01*
X3101822Y-5943269D01*
X3101847Y-5943092D01*
X3150108Y-5991352D01*
X3149955Y-5991377D01*
X3150971Y-5992393D01*
X3151987Y-5993917D01*
X3153003Y-5996965D01*
X3153003Y-5998489D01*
X3152902Y-5998463D01*
X3152902Y-6066536D01*
X3153003Y-6066510D01*
X3153003Y-6068034D01*
X3151987Y-6071082D01*
X3150971Y-6072606D01*
X3149955Y-6073622D01*
X3150108Y-6073647D01*
X3101847Y-6121907D01*
X3101822Y-6121755D01*
X3100806Y-6122771D01*
X3099282Y-6123787D01*
X3096234Y-6124803D01*
X3094710Y-6124803D01*
X3094736Y-6124702D01*
X3026663Y-6124702D01*
X3026689Y-6124803D01*
G37*
G36*
X3025165Y-6378803D02*
G01*
X3022117Y-6377787D01*
X3020593Y-6376771D01*
X3019577Y-6375755D01*
X3019552Y-6375907D01*
X2971291Y-6327647D01*
X2971444Y-6327622D01*
X2970428Y-6326606D01*
X2969412Y-6325082D01*
X2968396Y-6322034D01*
X2968396Y-6320510D01*
X2968497Y-6320536D01*
X2968497Y-6252463D01*
X2968396Y-6252489D01*
X2968396Y-6250965D01*
X2969412Y-6247917D01*
X2970428Y-6246393D01*
X2971444Y-6245377D01*
X2971291Y-6245352D01*
X3019552Y-6197092D01*
X3019577Y-6197269D01*
X3020593Y-6196253D01*
X3022117Y-6195237D01*
X3025165Y-6194221D01*
X3026689Y-6194221D01*
X3026663Y-6194297D01*
X3094736Y-6194297D01*
X3094710Y-6194221D01*
X3096234Y-6194221D01*
X3099282Y-6195237D01*
X3100806Y-6196253D01*
X3101822Y-6197269D01*
X3101847Y-6197092D01*
X3150108Y-6245352D01*
X3149955Y-6245377D01*
X3150971Y-6246393D01*
X3151987Y-6247917D01*
X3153003Y-6250965D01*
X3153003Y-6252489D01*
X3152902Y-6252463D01*
X3152902Y-6320536D01*
X3153003Y-6320510D01*
X3153003Y-6322034D01*
X3151987Y-6325082D01*
X3150971Y-6326606D01*
X3149955Y-6327622D01*
X3150108Y-6327647D01*
X3101847Y-6375907D01*
X3101822Y-6375755D01*
X3100806Y-6376771D01*
X3099282Y-6377787D01*
X3096234Y-6378803D01*
X3094710Y-6378803D01*
X3094736Y-6378702D01*
X3026663Y-6378702D01*
X3026689Y-6378803D01*
G37*
G36*
X3025165Y-6632803D02*
G01*
X3022117Y-6631787D01*
X3020593Y-6630771D01*
X3019577Y-6629755D01*
X3019552Y-6629908D01*
X2971291Y-6581647D01*
X2971444Y-6581622D01*
X2970428Y-6580606D01*
X2969412Y-6579082D01*
X2968396Y-6576034D01*
X2968396Y-6574510D01*
X2968497Y-6574536D01*
X2968497Y-6506463D01*
X2968396Y-6506489D01*
X2968396Y-6504965D01*
X2969412Y-6501917D01*
X2970428Y-6500393D01*
X2971444Y-6499377D01*
X2971291Y-6499352D01*
X3019552Y-6451092D01*
X3019577Y-6451244D01*
X3020593Y-6450228D01*
X3022117Y-6449212D01*
X3025165Y-6448196D01*
X3026689Y-6448196D01*
X3026663Y-6448297D01*
X3094736Y-6448297D01*
X3094710Y-6448196D01*
X3096234Y-6448196D01*
X3099282Y-6449212D01*
X3100806Y-6450228D01*
X3101822Y-6451244D01*
X3101847Y-6451092D01*
X3150108Y-6499352D01*
X3149955Y-6499377D01*
X3150971Y-6500393D01*
X3151987Y-6501917D01*
X3153003Y-6504965D01*
X3153003Y-6506489D01*
X3152902Y-6506463D01*
X3152902Y-6574536D01*
X3153003Y-6574510D01*
X3153003Y-6576034D01*
X3151987Y-6579082D01*
X3150971Y-6580606D01*
X3149955Y-6581622D01*
X3150108Y-6581647D01*
X3101847Y-6629908D01*
X3101822Y-6629755D01*
X3100806Y-6630771D01*
X3099282Y-6631787D01*
X3096234Y-6632803D01*
X3094710Y-6632803D01*
X3094736Y-6632702D01*
X3026663Y-6632702D01*
X3026689Y-6632803D01*
G37*
G36*
X3025165Y-6886803D02*
G01*
X3022117Y-6885787D01*
X3020593Y-6884771D01*
X3019577Y-6883755D01*
X3019552Y-6883908D01*
X2971291Y-6835647D01*
X2971444Y-6835622D01*
X2970428Y-6834606D01*
X2969412Y-6833082D01*
X2968396Y-6830034D01*
X2968396Y-6828510D01*
X2968497Y-6828536D01*
X2968497Y-6760463D01*
X2968396Y-6760489D01*
X2968396Y-6758965D01*
X2969412Y-6755917D01*
X2970428Y-6754393D01*
X2971444Y-6753377D01*
X2971291Y-6753352D01*
X3019552Y-6705092D01*
X3019577Y-6705244D01*
X3020593Y-6704228D01*
X3022117Y-6703212D01*
X3025165Y-6702196D01*
X3026689Y-6702196D01*
X3026663Y-6702297D01*
X3094736Y-6702297D01*
X3094710Y-6702196D01*
X3096234Y-6702196D01*
X3099282Y-6703212D01*
X3100806Y-6704228D01*
X3101822Y-6705244D01*
X3101847Y-6705092D01*
X3150108Y-6753352D01*
X3149955Y-6753377D01*
X3150971Y-6754393D01*
X3151987Y-6755917D01*
X3153003Y-6758965D01*
X3153003Y-6760489D01*
X3152902Y-6760463D01*
X3152902Y-6828536D01*
X3153003Y-6828510D01*
X3153003Y-6830034D01*
X3151987Y-6833082D01*
X3150971Y-6834606D01*
X3149955Y-6835622D01*
X3150108Y-6835647D01*
X3101847Y-6883908D01*
X3101822Y-6883755D01*
X3100806Y-6884771D01*
X3099282Y-6885787D01*
X3096234Y-6886803D01*
X3094710Y-6886803D01*
X3094736Y-6886702D01*
X3026663Y-6886702D01*
X3026689Y-6886803D01*
G37*
G36*
X3025165Y-7140803D02*
G01*
X3022117Y-7139787D01*
X3020593Y-7138771D01*
X3019577Y-7137755D01*
X3019552Y-7137908D01*
X2971291Y-7089647D01*
X2971444Y-7089622D01*
X2970428Y-7088606D01*
X2969412Y-7087082D01*
X2968396Y-7084034D01*
X2968396Y-7082510D01*
X2968497Y-7082536D01*
X2968497Y-7014463D01*
X2968396Y-7014489D01*
X2968396Y-7012965D01*
X2969412Y-7009917D01*
X2970428Y-7008393D01*
X2971444Y-7007377D01*
X2971291Y-7007352D01*
X3019552Y-6959092D01*
X3019577Y-6959244D01*
X3020593Y-6958228D01*
X3022117Y-6957212D01*
X3025165Y-6956196D01*
X3026689Y-6956196D01*
X3026663Y-6956297D01*
X3094736Y-6956297D01*
X3094710Y-6956196D01*
X3096234Y-6956196D01*
X3099282Y-6957212D01*
X3100806Y-6958228D01*
X3101822Y-6959244D01*
X3101847Y-6959092D01*
X3150108Y-7007352D01*
X3149955Y-7007377D01*
X3150971Y-7008393D01*
X3151987Y-7009917D01*
X3153003Y-7012965D01*
X3153003Y-7014489D01*
X3152902Y-7014463D01*
X3152902Y-7082536D01*
X3153003Y-7082510D01*
X3153003Y-7084034D01*
X3151987Y-7087082D01*
X3150971Y-7088606D01*
X3149955Y-7089622D01*
X3150108Y-7089647D01*
X3101847Y-7137908D01*
X3101822Y-7137755D01*
X3100806Y-7138771D01*
X3099282Y-7139787D01*
X3096234Y-7140803D01*
X3094710Y-7140803D01*
X3094736Y-7140702D01*
X3026663Y-7140702D01*
X3026689Y-7140803D01*
G37*
G36*
X6250940Y-5362803D02*
G01*
X6247891Y-5361787D01*
X6246368Y-5360771D01*
X6245352Y-5359755D01*
X6245352Y-5359907D01*
X6197091Y-5311647D01*
X6197244Y-5311647D01*
X6196228Y-5310631D01*
X6195212Y-5309107D01*
X6194196Y-5306060D01*
X6194196Y-5304536D01*
X6194297Y-5304536D01*
X6194297Y-5236463D01*
X6194196Y-5236489D01*
X6194196Y-5234965D01*
X6195212Y-5231917D01*
X6196228Y-5230393D01*
X6197244Y-5229377D01*
X6197091Y-5229352D01*
X6245352Y-5181092D01*
X6245352Y-5181269D01*
X6246368Y-5180253D01*
X6247891Y-5179237D01*
X6250940Y-5178221D01*
X6252463Y-5178221D01*
X6252463Y-5178297D01*
X6320536Y-5178297D01*
X6320510Y-5178221D01*
X6322034Y-5178221D01*
X6325082Y-5179237D01*
X6326606Y-5180253D01*
X6327622Y-5181269D01*
X6327647Y-5181092D01*
X6375908Y-5229352D01*
X6375730Y-5229377D01*
X6376746Y-5230393D01*
X6377762Y-5231917D01*
X6378778Y-5234965D01*
X6378778Y-5236489D01*
X6378702Y-5236463D01*
X6378702Y-5304536D01*
X6378778Y-5304536D01*
X6378778Y-5306060D01*
X6377762Y-5309107D01*
X6376746Y-5310631D01*
X6375730Y-5311647D01*
X6375908Y-5311647D01*
X6327647Y-5359907D01*
X6327622Y-5359755D01*
X6326606Y-5360771D01*
X6325082Y-5361787D01*
X6322034Y-5362803D01*
X6320510Y-5362803D01*
X6320536Y-5362702D01*
X6252463Y-5362702D01*
X6252463Y-5362803D01*
G37*
G36*
X6250940Y-5616803D02*
G01*
X6247891Y-5615787D01*
X6246368Y-5614771D01*
X6245352Y-5613755D01*
X6245352Y-5613907D01*
X6197091Y-5565647D01*
X6197244Y-5565647D01*
X6196228Y-5564631D01*
X6195212Y-5563107D01*
X6194196Y-5560060D01*
X6194196Y-5558536D01*
X6194297Y-5558536D01*
X6194297Y-5490463D01*
X6194196Y-5490489D01*
X6194196Y-5488965D01*
X6195212Y-5485917D01*
X6196228Y-5484393D01*
X6197244Y-5483377D01*
X6197091Y-5483352D01*
X6245352Y-5435092D01*
X6245352Y-5435269D01*
X6246368Y-5434253D01*
X6247891Y-5433237D01*
X6250940Y-5432221D01*
X6252463Y-5432221D01*
X6252463Y-5432297D01*
X6320536Y-5432297D01*
X6320510Y-5432221D01*
X6322034Y-5432221D01*
X6325082Y-5433237D01*
X6326606Y-5434253D01*
X6327622Y-5435269D01*
X6327647Y-5435092D01*
X6375908Y-5483352D01*
X6375730Y-5483377D01*
X6376746Y-5484393D01*
X6377762Y-5485917D01*
X6378778Y-5488965D01*
X6378778Y-5490489D01*
X6378702Y-5490463D01*
X6378702Y-5558536D01*
X6378778Y-5558536D01*
X6378778Y-5560060D01*
X6377762Y-5563107D01*
X6376746Y-5564631D01*
X6375730Y-5565647D01*
X6375908Y-5565647D01*
X6327647Y-5613907D01*
X6327622Y-5613755D01*
X6326606Y-5614771D01*
X6325082Y-5615787D01*
X6322034Y-5616803D01*
X6320510Y-5616803D01*
X6320536Y-5616702D01*
X6252463Y-5616702D01*
X6252463Y-5616803D01*
G37*
G36*
X6250940Y-5870803D02*
G01*
X6247891Y-5869787D01*
X6246368Y-5868771D01*
X6245352Y-5867755D01*
X6245352Y-5867907D01*
X6197091Y-5819647D01*
X6197244Y-5819647D01*
X6196228Y-5818631D01*
X6195212Y-5817107D01*
X6194196Y-5814060D01*
X6194196Y-5812536D01*
X6194297Y-5812536D01*
X6194297Y-5744463D01*
X6194196Y-5744489D01*
X6194196Y-5742965D01*
X6195212Y-5739917D01*
X6196228Y-5738393D01*
X6197244Y-5737377D01*
X6197091Y-5737352D01*
X6245352Y-5689092D01*
X6245352Y-5689269D01*
X6246368Y-5688253D01*
X6247891Y-5687237D01*
X6250940Y-5686221D01*
X6252463Y-5686221D01*
X6252463Y-5686297D01*
X6320536Y-5686297D01*
X6320510Y-5686221D01*
X6322034Y-5686221D01*
X6325082Y-5687237D01*
X6326606Y-5688253D01*
X6327622Y-5689269D01*
X6327647Y-5689092D01*
X6375908Y-5737352D01*
X6375730Y-5737377D01*
X6376746Y-5738393D01*
X6377762Y-5739917D01*
X6378778Y-5742965D01*
X6378778Y-5744489D01*
X6378702Y-5744463D01*
X6378702Y-5812536D01*
X6378778Y-5812536D01*
X6378778Y-5814060D01*
X6377762Y-5817107D01*
X6376746Y-5818631D01*
X6375730Y-5819647D01*
X6375908Y-5819647D01*
X6327647Y-5867907D01*
X6327622Y-5867755D01*
X6326606Y-5868771D01*
X6325082Y-5869787D01*
X6322034Y-5870803D01*
X6320510Y-5870803D01*
X6320536Y-5870702D01*
X6252463Y-5870702D01*
X6252463Y-5870803D01*
G37*
G36*
X6250940Y-6124803D02*
G01*
X6247891Y-6123787D01*
X6246368Y-6122771D01*
X6245352Y-6121755D01*
X6245352Y-6121907D01*
X6197091Y-6073647D01*
X6197244Y-6073622D01*
X6196228Y-6072606D01*
X6195212Y-6071082D01*
X6194196Y-6068034D01*
X6194196Y-6066510D01*
X6194297Y-6066536D01*
X6194297Y-5998463D01*
X6194196Y-5998489D01*
X6194196Y-5996965D01*
X6195212Y-5993917D01*
X6196228Y-5992393D01*
X6197244Y-5991377D01*
X6197091Y-5991352D01*
X6245352Y-5943092D01*
X6245352Y-5943269D01*
X6246368Y-5942253D01*
X6247891Y-5941237D01*
X6250940Y-5940221D01*
X6252463Y-5940221D01*
X6252463Y-5940297D01*
X6320536Y-5940297D01*
X6320510Y-5940221D01*
X6322034Y-5940221D01*
X6325082Y-5941237D01*
X6326606Y-5942253D01*
X6327622Y-5943269D01*
X6327647Y-5943092D01*
X6375908Y-5991352D01*
X6375730Y-5991377D01*
X6376746Y-5992393D01*
X6377762Y-5993917D01*
X6378778Y-5996965D01*
X6378778Y-5998489D01*
X6378702Y-5998463D01*
X6378702Y-6066536D01*
X6378778Y-6066510D01*
X6378778Y-6068034D01*
X6377762Y-6071082D01*
X6376746Y-6072606D01*
X6375730Y-6073622D01*
X6375908Y-6073647D01*
X6327647Y-6121907D01*
X6327622Y-6121755D01*
X6326606Y-6122771D01*
X6325082Y-6123787D01*
X6322034Y-6124803D01*
X6320510Y-6124803D01*
X6320536Y-6124702D01*
X6252463Y-6124702D01*
X6252463Y-6124803D01*
G37*
G36*
X6250940Y-6378803D02*
G01*
X6247891Y-6377787D01*
X6246368Y-6376771D01*
X6245352Y-6375755D01*
X6245352Y-6375907D01*
X6197091Y-6327647D01*
X6197244Y-6327622D01*
X6196228Y-6326606D01*
X6195212Y-6325082D01*
X6194196Y-6322034D01*
X6194196Y-6320510D01*
X6194297Y-6320536D01*
X6194297Y-6252463D01*
X6194196Y-6252489D01*
X6194196Y-6250965D01*
X6195212Y-6247917D01*
X6196228Y-6246393D01*
X6197244Y-6245377D01*
X6197091Y-6245352D01*
X6245352Y-6197092D01*
X6245352Y-6197269D01*
X6246368Y-6196253D01*
X6247891Y-6195237D01*
X6250940Y-6194221D01*
X6252463Y-6194221D01*
X6252463Y-6194297D01*
X6320536Y-6194297D01*
X6320510Y-6194221D01*
X6322034Y-6194221D01*
X6325082Y-6195237D01*
X6326606Y-6196253D01*
X6327622Y-6197269D01*
X6327647Y-6197092D01*
X6375908Y-6245352D01*
X6375730Y-6245377D01*
X6376746Y-6246393D01*
X6377762Y-6247917D01*
X6378778Y-6250965D01*
X6378778Y-6252489D01*
X6378702Y-6252463D01*
X6378702Y-6320536D01*
X6378778Y-6320510D01*
X6378778Y-6322034D01*
X6377762Y-6325082D01*
X6376746Y-6326606D01*
X6375730Y-6327622D01*
X6375908Y-6327647D01*
X6327647Y-6375907D01*
X6327622Y-6375755D01*
X6326606Y-6376771D01*
X6325082Y-6377787D01*
X6322034Y-6378803D01*
X6320510Y-6378803D01*
X6320536Y-6378702D01*
X6252463Y-6378702D01*
X6252463Y-6378803D01*
G37*
G36*
X6250940Y-6632803D02*
G01*
X6247891Y-6631787D01*
X6246368Y-6630771D01*
X6245352Y-6629755D01*
X6245352Y-6629908D01*
X6197091Y-6581647D01*
X6197244Y-6581622D01*
X6196228Y-6580606D01*
X6195212Y-6579082D01*
X6194196Y-6576034D01*
X6194196Y-6574510D01*
X6194297Y-6574536D01*
X6194297Y-6506463D01*
X6194196Y-6506489D01*
X6194196Y-6504965D01*
X6195212Y-6501917D01*
X6196228Y-6500393D01*
X6197244Y-6499377D01*
X6197091Y-6499352D01*
X6245352Y-6451092D01*
X6245352Y-6451244D01*
X6246368Y-6450228D01*
X6247891Y-6449212D01*
X6250940Y-6448196D01*
X6252463Y-6448196D01*
X6252463Y-6448297D01*
X6320536Y-6448297D01*
X6320510Y-6448196D01*
X6322034Y-6448196D01*
X6325082Y-6449212D01*
X6326606Y-6450228D01*
X6327622Y-6451244D01*
X6327647Y-6451092D01*
X6375908Y-6499352D01*
X6375730Y-6499377D01*
X6376746Y-6500393D01*
X6377762Y-6501917D01*
X6378778Y-6504965D01*
X6378778Y-6506489D01*
X6378702Y-6506463D01*
X6378702Y-6574536D01*
X6378778Y-6574510D01*
X6378778Y-6576034D01*
X6377762Y-6579082D01*
X6376746Y-6580606D01*
X6375730Y-6581622D01*
X6375908Y-6581647D01*
X6327647Y-6629908D01*
X6327622Y-6629755D01*
X6326606Y-6630771D01*
X6325082Y-6631787D01*
X6322034Y-6632803D01*
X6320510Y-6632803D01*
X6320536Y-6632702D01*
X6252463Y-6632702D01*
X6252463Y-6632803D01*
G37*
G36*
X6250940Y-6886803D02*
G01*
X6247891Y-6885787D01*
X6246368Y-6884771D01*
X6245352Y-6883755D01*
X6245352Y-6883908D01*
X6197091Y-6835647D01*
X6197244Y-6835622D01*
X6196228Y-6834606D01*
X6195212Y-6833082D01*
X6194196Y-6830034D01*
X6194196Y-6828510D01*
X6194297Y-6828536D01*
X6194297Y-6760463D01*
X6194196Y-6760489D01*
X6194196Y-6758965D01*
X6195212Y-6755917D01*
X6196228Y-6754393D01*
X6197244Y-6753377D01*
X6197091Y-6753352D01*
X6245352Y-6705092D01*
X6245352Y-6705244D01*
X6246368Y-6704228D01*
X6247891Y-6703212D01*
X6250940Y-6702196D01*
X6252463Y-6702196D01*
X6252463Y-6702297D01*
X6320536Y-6702297D01*
X6320510Y-6702196D01*
X6322034Y-6702196D01*
X6325082Y-6703212D01*
X6326606Y-6704228D01*
X6327622Y-6705244D01*
X6327647Y-6705092D01*
X6375908Y-6753352D01*
X6375730Y-6753377D01*
X6376746Y-6754393D01*
X6377762Y-6755917D01*
X6378778Y-6758965D01*
X6378778Y-6760489D01*
X6378702Y-6760463D01*
X6378702Y-6828536D01*
X6378778Y-6828510D01*
X6378778Y-6830034D01*
X6377762Y-6833082D01*
X6376746Y-6834606D01*
X6375730Y-6835622D01*
X6375908Y-6835647D01*
X6327647Y-6883908D01*
X6327622Y-6883755D01*
X6326606Y-6884771D01*
X6325082Y-6885787D01*
X6322034Y-6886803D01*
X6320510Y-6886803D01*
X6320536Y-6886702D01*
X6252463Y-6886702D01*
X6252463Y-6886803D01*
G37*
G36*
X6250940Y-7140803D02*
G01*
X6247891Y-7139787D01*
X6246368Y-7138771D01*
X6245352Y-7137755D01*
X6245352Y-7137908D01*
X6197091Y-7089647D01*
X6197244Y-7089622D01*
X6196228Y-7088606D01*
X6195212Y-7087082D01*
X6194196Y-7084034D01*
X6194196Y-7082510D01*
X6194297Y-7082536D01*
X6194297Y-7014463D01*
X6194196Y-7014489D01*
X6194196Y-7012965D01*
X6195212Y-7009917D01*
X6196228Y-7008393D01*
X6197244Y-7007377D01*
X6197091Y-7007352D01*
X6245352Y-6959092D01*
X6245352Y-6959244D01*
X6246368Y-6958228D01*
X6247891Y-6957212D01*
X6250940Y-6956196D01*
X6252463Y-6956196D01*
X6252463Y-6956297D01*
X6320536Y-6956297D01*
X6320510Y-6956196D01*
X6322034Y-6956196D01*
X6325082Y-6957212D01*
X6326606Y-6958228D01*
X6327622Y-6959244D01*
X6327647Y-6959092D01*
X6375908Y-7007352D01*
X6375730Y-7007377D01*
X6376746Y-7008393D01*
X6377762Y-7009917D01*
X6378778Y-7012965D01*
X6378778Y-7014489D01*
X6378702Y-7014463D01*
X6378702Y-7082536D01*
X6378778Y-7082510D01*
X6378778Y-7084034D01*
X6377762Y-7087082D01*
X6376746Y-7088606D01*
X6375730Y-7089622D01*
X6375908Y-7089647D01*
X6327647Y-7137908D01*
X6327622Y-7137755D01*
X6326606Y-7138771D01*
X6325082Y-7139787D01*
X6322034Y-7140803D01*
X6320510Y-7140803D01*
X6320536Y-7140702D01*
X6252463Y-7140702D01*
X6252463Y-7140803D01*
G37*
M02*
